<?xml version="1.0" encoding="UTF-8" standalone="no" ?>
<!DOCTYPE svg PUBLIC "-//W3C//DTD SVG 1.1//EN" "http://www.w3.org/Graphics/SVG/1.1/DTD/svg11.dtd">
<svg xmlns="http://www.w3.org/2000/svg" xmlns:xlink="http://www.w3.org/1999/xlink" version="1.1" width="40px" height="40px" viewBox="0 0 1080 1080" xml:space="preserve">
<desc>Created with Fabric.js 5.2.4</desc>
<defs>
</defs>
<rect x="0" y="0" width="100%" height="100%" fill="transparent"></rect>
<g transform="matrix(1,0,0,1,540,540)" id="feb5c262-a41c-4dba-80e6-b63c33b8ef26"  >
<rect style="fill: rgb(255, 255, 255); fill-rule: nonzero; stroke: none; stroke-width: 1; stroke-linecap: butt; stroke-linejoin: miter; stroke-dasharray: none; stroke-dashoffset: 0; stroke-miterlimit: 4; opacity: 1; visibility: hidden" vector-effect="non-scaling-stroke"  x="-540" y="-540" rx="0" ry="0" width="1080" height="1080" />
</g>
<g transform="matrix(1,0,0,1,540,540)" id="8223a6f2-e3a2-4858-b3d8-fbb56d93910e"  >
</g>
<g transform="matrix(1,0,0,1,540,540)" id="ff18eb97-c752-4b28-883a-fca3919b3729"  >
<path style="fill: rgb(255, 255, 255); fill-rule: nonzero; stroke: rgb(0, 0, 0); stroke-width: 0; stroke-linecap: butt; stroke-linejoin: miter; stroke-dasharray: none; stroke-dashoffset: 0; stroke-miterlimit: 4; opacity: 1" vector-effect="non-scaling-stroke"  transform="matrix(1.5,0,0,1.6,-576,-584.5)" d="M 544.2 237.2 C 540.9 235.5 537.8 233.7 534.7 231.7 C 525.8 225.8 517.7 218.9 510.5 211.1 C 492.4 190.4 485.6 169.4 483.1 154.6 L 483.2 154.6 C 481.1 142.4 482 134.5 482.1 134.5 L 399.7 134.5 L 399.7 453.3 C 399.7 457.6 399.7 461.8 399.5 466 C 399.5 466.5 399.4 467 399.4 467.6 C 399.4 467.8 399.4 468 399.4 468.3 C 399.4 468.3 399.4 468.4 399.4 468.5 C 397.6 491.7 384.4 512.5 364.1 524 C 353.7 529.9 342 533 330 533 C 291.6 533 260.5 501.7 260.5 463 C 260.5 424.3 291.6 393 330 393 C 337.3 393 344.5 394.1 351.4 396.4 L 351.5 312.5 C 309.1 307 266.3 319.5 233.5 347 C 219.3 359.3 207.4 374.1 198.2 390.5 C 194.8 396.5 181.6 420.6 180 459.8 C 179 482 185.7 505 188.9 514.5 L 188.9 514.7 C 190.9 520.3 198.6 539.4 211.3 555.5 C 221.5 568.4 233.5 579.8 247 589.2 L 247 589 L 247.2 589.2 C 287.1 616.3 331.3 614.5 331.3 614.5 C 339 614.2 364.7 614.5 393.8 600.7 C 426.1 585.4 444.5 562.6 444.5 562.6 C 456.3 549 465.6 533.4 472.2 516.7 C 479.6 497.1 482.1 473.5 482.1 464.1 L 482.1 295 C 483.1 295.6 496.4 304.4 496.4 304.4 C 496.4 304.4 515.6 316.7 545.6 324.7 C 567 330.4 596 331.6 596 331.6 L 596 249.8 C 585.8 250.9 565.3 247.7 544.2 237.2 Z" stroke-linecap="round" />
</g>
</svg>